<svg id="kity_svg_6" xmlns="http://www.w3.org/2000/svg" xmlns:xlink="http://www.w3.org/1999/xlink" version="1.1" width="960" height="1066" style="display: inline; background: rgb(251, 251, 251);" viewBox="0 0 960 1066"><defs id="kity_defs_7"><linearGradient id="kity_linearGradient_17" x1="0" y1="0" x2="0" y2="1"><stop id="kity_stop_18" offset="0" stop-color="rgb(255, 255, 255)"></stop><stop id="kity_stop_19" offset="1" stop-color="rgb(204, 204, 204)"></stop></linearGradient><marker id="kity_marker_2" orient="auto" refX="6" refY="0" viewBox="-7 -7 14 14" markerWidth="7" markerHeight="7" markerUnits="userSpaceOnUse"><path id="kity_path_3" fill="rgb(115, 161, 191)" stroke="none" d="M6,0A6,6,0,1,1,-6,0A6,6,0,1,1,6,0"></path></marker></defs><g id="kity_g_8"><g id="minder1" text-rendering="optimize-speed"><g id="minder_connect_group1"><path id="kity_path_31" fill="none" stroke="rgb(115, 161, 191)" stroke-width="1" d="M81.5,618.5A190,2,0,0,0,271.5,620.5"></path><path id="kity_path_221" fill="none" stroke="rgb(115, 161, 191)" stroke-width="1" d="M366.5,620.5C387,620.5,387,63.5,407.5,63.5L586.5,63.5"></path><path id="kity_path_222" fill="none" stroke="rgb(115, 161, 191)" stroke-width="1" d="M366.5,620.5C392.5,620.5,392.5,154.5,418.5,154.5L555.5,154.5"></path><path id="kity_path_223" fill="none" stroke="rgb(115, 161, 191)" stroke-width="1" d="M366.5,620.5C390.5,620.5,390.5,236.5,414.5,236.5L563.5,236.5"></path><path id="kity_path_224" fill="none" stroke="rgb(115, 161, 191)" stroke-width="1" d="M554.5,366.5C569.5,366.5,569.5,270.5,584.5,270.5L732.5,270.5"></path><path id="kity_path_225" fill="none" stroke="rgb(115, 161, 191)" stroke-width="1" d="M554.5,366.5C569.5,366.5,569.5,340.5,584.5,340.5L752.5,340.5"></path><path id="kity_path_226" fill="none" stroke="rgb(115, 161, 191)" stroke-width="1" d="M739.5,480.5C757.5,480.5,757.5,344.5,775.5,344.5L853.5,344.5"></path><path id="kity_path_227" fill="none" stroke="rgb(115, 161, 191)" stroke-width="1" d="M739.5,480.5C755,480.5,755,430.5,770.5,430.5L879.5,430.5"></path><path id="kity_path_228" fill="none" stroke="rgb(115, 161, 191)" stroke-width="1" d="M739.5,480.5C753,480.5,753,522.5,766.5,522.5L940.5,522.5"></path><path id="kity_path_229" fill="none" stroke="rgb(115, 161, 191)" stroke-width="1" d="M554.5,366.5C569.5,366.5,569.5,480.5,584.5,480.5L739.5,480.5"></path><path id="kity_path_230" fill="none" stroke="rgb(115, 161, 191)" stroke-width="1" d="M366.5,620.5C427.5,620.5,427.5,366.5,488.5,366.5L554.5,366.5"></path><path id="kity_path_231" fill="none" stroke="rgb(115, 161, 191)" stroke-width="1" d="M366.5,620.5C389.5,620.5,389.5,624.5,412.5,624.5L578.5,624.5"></path><path id="kity_path_232" fill="none" stroke="rgb(115, 161, 191)" stroke-width="1" d="M366.5,620.5C390.5,620.5,390.5,737.5,414.5,737.5L566.5,737.5"></path><path id="kity_path_233" fill="none" stroke="rgb(115, 161, 191)" stroke-width="1" d="M366.5,620.5C392,620.5,392,872.5,417.5,872.5L541.5,872.5"></path><path id="kity_path_234" fill="none" stroke="rgb(115, 161, 191)" stroke-width="1" d="M366.5,620.5C381.5,620.5,381.5,1046.5,396.5,1046.5L532.5,1046.5"></path></g><g id="minder_node1"><path id="node_outline1" fill="rgb(115, 161, 191)" stroke="rgb(115, 161, 191)" d="M25.5,598.5h112a5,5,0,0,1,5,5v30a5,5,0,0,1,-5,5h-112a5,5,0,0,1,-5,-5v-30a5,5,0,0,1,5,-5z" stroke-width="3"></path><g id="node_text1" fill="white"><text id="kity_text_22" text-rendering="inherit" font-size="16" dy=".8em" y="608.0999999046326" x="44.5">Bootstrap</text></g></g><g id="kity_g_14" display="none"><path id="kity_path_15" fill="rgba(0, 92, 153, 0.5)" stroke="none" d="M513.5,699.5h158v15h-158z"></path><path id="kity_path_16" fill="none" stroke="rgb(0, 76, 128)" d="M513.5,699.5L671.5,699.5" stroke-width="1"></path></g><g id="minder_node2" opacity="1"><g id="node_expander1" style="cursor: pointer;"><path id="kity_path_41" fill="white" stroke="gray" d="M272.5,620.5A6,6,0,1,1,260.5,620.5A6,6,0,1,1,272.5,620.5"></path><path id="kity_path_42" fill="none" stroke="gray" d="M262,620.5L271,620.5"></path></g><path id="node_outline2" fill="rgb(238, 243, 246)" stroke="rgb(57, 80, 96)" d="M276.5,604.5h87a3,3,0,0,1,3,3v26a3,3,0,0,1,-3,3h-87a3,3,0,0,1,-3,-3v-26a3,3,0,0,1,3,-3z" stroke-width="3"></path><g id="node_text2" fill="black"><text id="kity_text_33" text-rendering="inherit" font-size="14" dy=".8em" y="611.4000000953674" x="318.5">插件</text></g><g id="node_priority1"><path id="kity_path_36" fill="#B25000" stroke="none" d="M294,624c0,3.866,3.134,7,7,7h6c3.866,0,7,-3.134,7,-7V618H294V624z"></path><path id="kity_path_37" fill="#FF962E" stroke="none" d="M314,621c0,3.866,-3.134,7,-7,7H301c-3.866,0,-7,-3.134,-7,-7V618c0,-3.866,3.134,-7,7,-7h6c3.866,0,7,3.134,7,7V621z" opacity="0.8"></path><text id="kity_text_38" text-rendering="geometricPrecision" x="303" y="620.5" text-anchor="middle" font-style="italic" font-size="12" fill="white" dy="4.5">4</text></g></g><g id="kity_g_12" display="none"><path id="kity_path_13" fill="none" stroke="rgb(66, 94, 112)" d="M37.5,604.5h88a5,5,0,0,1,5,5v18a5,5,0,0,1,-5,5h-88a5,5,0,0,1,-5,-5v-18a5,5,0,0,1,5,-5z" stroke-width="5"></path></g><g id="minder_node3" opacity="1"><g id="node_expander2" style="cursor: pointer;" display="none"><path id="kity_path_49" fill="white" stroke="gray" d="M417.5,40.5A6,6,0,1,1,405.5,40.5A6,6,0,1,1,417.5,40.5"></path><path id="kity_path_50" fill="none" stroke="gray"></path></g><path id="node_outline3" fill="none" stroke="none" d="M422.5,20.5h159a5,5,0,0,1,5,5v30a5,5,0,0,1,-5,5h-159a5,5,0,0,1,-5,-5v-30a5,5,0,0,1,5,-5z" stroke-width="3"></path><g id="node_text3" fill="black"><text id="kity_text_46" text-rendering="inherit" font-size="12" dy=".8em" y="23.700000047683716" x="427.5">下拉菜单</text><text id="kity_text_83" text-rendering="inherit" font-size="12" dy=".8em" y="41.700000047683716" x="427.5">data-toggle="dropdown"</text></g></g><g id="minder_node4" opacity="1"><g id="node_expander3" style="cursor: pointer;" display="none"><path id="kity_path_57" fill="white" stroke="gray" d="M428.5,131.5A6,6,0,1,1,416.5,131.5A6,6,0,1,1,428.5,131.5"></path><path id="kity_path_58" fill="none" stroke="gray"></path></g><path id="node_outline4" fill="none" stroke="none" d="M433.5,111.5h117a5,5,0,0,1,5,5v30a5,5,0,0,1,-5,5h-117a5,5,0,0,1,-5,-5v-30a5,5,0,0,1,5,-5z" stroke-width="3"></path><g id="node_text4" fill="black"><text id="kity_text_54" text-rendering="inherit" font-size="12" dy=".8em" y="114.70000004768372" x="438.5">标签页</text><text id="kity_text_84" text-rendering="inherit" font-size="12" dy=".8em" y="132.70000004768372" x="438.5">data-toggle="tab"</text></g></g><g id="minder_node5" opacity="1"><g id="node_expander4" style="cursor: pointer;" display="none"><path id="kity_path_65" fill="white" stroke="gray" d="M424.5,213.5A6,6,0,1,1,412.5,213.5A6,6,0,1,1,424.5,213.5"></path><path id="kity_path_66" fill="none" stroke="gray"></path></g><path id="node_outline5" fill="none" stroke="none" d="M429.5,193.5h129a5,5,0,0,1,5,5v30a5,5,0,0,1,-5,5h-129a5,5,0,0,1,-5,-5v-30a5,5,0,0,1,5,-5z" stroke-width="3"></path><g id="node_text5" fill="black"><text id="kity_text_62" text-rendering="inherit" font-size="12" dy=".8em" y="196.70000004768372" x="434.5">警告框关闭</text><text id="kity_text_85" text-rendering="inherit" font-size="12" dy=".8em" y="214.70000004768372" x="434.5">data-dismiss="alert"</text></g></g><g id="minder_node7" opacity="1"><g id="node_expander6" style="cursor: pointer;" display="none"><path id="kity_path_81" fill="white" stroke="gray" d="M594.5,247.5A6,6,0,1,1,582.5,247.5A6,6,0,1,1,594.5,247.5"></path><path id="kity_path_82" fill="none" stroke="gray"></path></g><path id="node_outline7" fill="none" stroke="none" d="M599.5,227.5h128a5,5,0,0,1,5,5v30a5,5,0,0,1,-5,5h-128a5,5,0,0,1,-5,-5v-30a5,5,0,0,1,5,-5z" stroke-width="3"></path><g id="node_text7" fill="black"><text id="kity_text_78" text-rendering="inherit" font-size="12" dy=".8em" y="230.70000004768372" x="604.5">工具提示</text><text id="kity_text_94" text-rendering="inherit" font-size="12" dy=".8em" y="248.70000004768372" x="604.5">data-toggle="toolti"</text></g></g><g id="minder_node8" opacity="1"><g id="node_expander7" style="cursor: pointer;" display="none"><path id="kity_path_92" fill="white" stroke="gray" d="M594.5,317.5A6,6,0,1,1,582.5,317.5A6,6,0,1,1,594.5,317.5"></path><path id="kity_path_93" fill="none" stroke="gray"></path></g><path id="node_outline8" fill="none" stroke="none" d="M599.5,297.5h148a5,5,0,0,1,5,5v30a5,5,0,0,1,-5,5h-148a5,5,0,0,1,-5,-5v-30a5,5,0,0,1,5,-5z" stroke-width="3"></path><g id="node_text8" fill="black"><text id="kity_text_89" text-rendering="inherit" font-size="12" dy=".8em" y="300.7000000476837" x="604.5">弹出框</text><text id="kity_text_97" text-rendering="inherit" font-size="12" dy=".8em" y="318.7000000476837" x="604.5">data-toggle="popover"</text></g></g><g id="minder_node10" opacity="1"><g id="node_expander9" style="cursor: pointer;" display="none"><path id="kity_path_113" fill="white" stroke="gray" d="M785.5,321.5A6,6,0,1,1,773.5,321.5A6,6,0,1,1,785.5,321.5"></path><path id="kity_path_114" fill="none" stroke="gray"></path></g><path id="node_outline10" fill="none" stroke="none" d="M790.5,301.5h58a5,5,0,0,1,5,5v30a5,5,0,0,1,-5,5h-58a5,5,0,0,1,-5,-5v-30a5,5,0,0,1,5,-5z" stroke-width="3"></path><g id="node_text10" fill="black"><text id="kity_text_110" text-rendering="inherit" font-size="12" dy=".8em" y="304.7000000476837" x="795.5">全屏遮罩</text><text id="kity_text_115" text-rendering="inherit" font-size="12" dy=".8em" y="322.7000000476837" x="795.5">.modal</text></g></g><g id="minder_node11" opacity="1"><g id="node_expander10" style="cursor: pointer;" display="none"><path id="kity_path_122" fill="white" stroke="gray" d="M780.5,407.5A6,6,0,1,1,768.5,407.5A6,6,0,1,1,780.5,407.5"></path><path id="kity_path_123" fill="none" stroke="gray"></path></g><path id="node_outline11" fill="none" stroke="none" d="M785.5,387.5h89a5,5,0,0,1,5,5v30a5,5,0,0,1,-5,5h-89a5,5,0,0,1,-5,-5v-30a5,5,0,0,1,5,-5z" stroke-width="3"></path><g id="node_text11" fill="black"><text id="kity_text_119" text-rendering="inherit" font-size="12" dy=".8em" y="390.7000000476837" x="790.5">宽高、定位</text><text id="kity_text_124" text-rendering="inherit" font-size="12" dy=".8em" y="408.7000000476837" x="790.5">modal-dialog</text></g></g><g id="minder_node12" opacity="1"><g id="node_expander11" style="cursor: pointer;" display="none"><path id="kity_path_131" fill="white" stroke="gray" d="M776.5,499.5A6,6,0,1,1,764.5,499.5A6,6,0,1,1,776.5,499.5"></path><path id="kity_path_132" fill="none" stroke="gray"></path></g><path id="node_outline12" fill="none" stroke="none" d="M781.5,479.5h154a5,5,0,0,1,5,5v30a5,5,0,0,1,-5,5h-154a5,5,0,0,1,-5,-5v-30a5,5,0,0,1,5,-5z" stroke-width="3"></path><g id="node_text12" fill="black"><text id="kity_text_128" text-rendering="inherit" font-size="12" dy=".8em" y="482.7000000476837" x="786.5">背景色、边框、倒角、阴影</text><text id="kity_text_133" text-rendering="inherit" font-size="12" dy=".8em" y="500.7000000476837" x="786.5">modal-content</text></g></g><g id="minder_node9" opacity="1"><g id="node_expander8" style="cursor: pointer;"><path id="kity_path_104" fill="white" stroke="gray" d="M594.5,457.5A6,6,0,1,1,582.5,457.5A6,6,0,1,1,594.5,457.5"></path><path id="kity_path_105" fill="none" stroke="gray" d="M584,457.5L593,457.5"></path></g><path id="node_outline9" fill="none" stroke="none" d="M599.5,437.5h135a5,5,0,0,1,5,5v30a5,5,0,0,1,-5,5h-135a5,5,0,0,1,-5,-5v-30a5,5,0,0,1,5,-5z" stroke-width="3"></path><g id="node_text9" fill="black"><text id="kity_text_101" text-rendering="inherit" font-size="12" dy=".8em" y="440.7000000476837" x="604.5">模态弹出框</text><text id="kity_text_106" text-rendering="inherit" font-size="12" dy=".8em" y="458.7000000476837" x="604.5">data-toggle="modal"</text></g></g><g id="minder_node6" opacity="1"><g id="node_expander5" style="cursor: pointer;"><path id="kity_path_73" fill="white" stroke="gray" d="M498.5,352.5A6,6,0,1,1,486.5,352.5A6,6,0,1,1,498.5,352.5"></path><path id="kity_path_74" fill="none" stroke="gray" d="M488,352.5L497,352.5"></path></g><path id="node_outline6" fill="none" stroke="none" d="M503.5,341.5h46a5,5,0,0,1,5,5v12a5,5,0,0,1,-5,5h-46a5,5,0,0,1,-5,-5v-12a5,5,0,0,1,5,-5z" stroke-width="3"></path><g id="node_text6" fill="black"><text id="kity_text_70" text-rendering="inherit" font-size="12" dy=".8em" y="344.7000000476837" x="508.5">提示框</text></g></g><g id="minder_node14" opacity="1"><g id="node_expander13" style="cursor: pointer;" display="none"><path id="kity_path_175" fill="white" stroke="gray" d="M422.5,601.5A6,6,0,1,1,410.5,601.5A6,6,0,1,1,422.5,601.5"></path><path id="kity_path_176" fill="none" stroke="gray"></path></g><path id="node_outline14" fill="none" stroke="none" d="M427.5,581.5h146a5,5,0,0,1,5,5v30a5,5,0,0,1,-5,5h-146a5,5,0,0,1,-5,-5v-30a5,5,0,0,1,5,-5z" stroke-width="3"></path><g id="node_text14" fill="black"><text id="kity_text_172" text-rendering="inherit" font-size="12" dy=".8em" y="584.7000000476837" x="432.5">折叠效果</text><text id="kity_text_177" text-rendering="inherit" font-size="12" dy=".8em" y="602.7000000476837" x="432.5">data-toggle="collapse"</text></g></g><g id="minder_node15" opacity="1"><g id="node_expander14" style="cursor: pointer;" display="none"><path id="kity_path_184" fill="white" stroke="gray" d="M424.5,714.5A6,6,0,1,1,412.5,714.5A6,6,0,1,1,424.5,714.5"></path><path id="kity_path_185" fill="none" stroke="gray"></path></g><path id="node_outline15" fill="none" stroke="none" d="M429.5,694.5h132a5,5,0,0,1,5,5v30a5,5,0,0,1,-5,5h-132a5,5,0,0,1,-5,-5v-30a5,5,0,0,1,5,-5z" stroke-width="3"></path><g id="node_text15" fill="black"><text id="kity_text_181" text-rendering="inherit" font-size="12" dy=".8em" y="697.7000000476837" x="434.5">广告轮播</text><text id="kity_text_186" text-rendering="inherit" font-size="12" dy=".8em" y="715.7000000476837" x="434.5">data-ride="carousel"</text></g></g><g id="minder_node16" opacity="1"><g id="node_expander15" style="cursor: pointer;" display="none"><path id="kity_path_193" fill="white" stroke="gray" d="M427.5,840.5A6,6,0,1,1,415.5,840.5A6,6,0,1,1,427.5,840.5"></path><path id="kity_path_194" fill="none" stroke="gray"></path></g><path id="node_outline16" fill="none" stroke="none" d="M432.5,811.5h104a5,5,0,0,1,5,5v48a5,5,0,0,1,-5,5h-104a5,5,0,0,1,-5,-5v-48a5,5,0,0,1,5,-5z" stroke-width="3"></path><g id="node_text16" fill="black"><text id="kity_text_190" text-rendering="inherit" font-size="12" dy=".8em" y="814.7000000476837" x="437.5">附加导航</text><text id="kity_text_195" text-rendering="inherit" font-size="12" dy=".8em" y="832.7000000476837" x="437.5">data-spy="affix"</text><text id="kity_text_196" text-rendering="inherit" font-size="12" dy=".8em" y="850.7000000476837" x="437.5">data-offset=""</text></g></g><g id="minder_node17"><g id="node_expander16" style="cursor: pointer;" display="none"><path id="kity_path_203" fill="white" stroke="gray" d="M406.5,1014.5A6,6,0,1,1,394.5,1014.5A6,6,0,1,1,406.5,1014.5"></path><path id="kity_path_204" fill="none" stroke="gray"></path></g><path id="node_outline17" fill="none" stroke="none" d="M411.5,985.5h116a5,5,0,0,1,5,5v48a5,5,0,0,1,-5,5h-116a5,5,0,0,1,-5,-5v-48a5,5,0,0,1,5,-5z" stroke-width="3"></path><g id="node_text17" fill="black"><text id="kity_text_200" text-rendering="inherit" font-size="12" dy=".8em" y="988.7000000476837" x="416.5">滚动监听:</text><text id="kity_text_205" text-rendering="inherit" font-size="12" dy=".8em" y="1006.7000000476837" x="416.5">data-spy="scroll"</text><text id="kity_text_206" text-rendering="inherit" font-size="12" dy=".8em" y="1024.7000000476837" x="416.5">data-target="#ID"</text></g></g></g></g></svg>