<svg id="kity_svg_6" xmlns="http://www.w3.org/2000/svg" xmlns:xlink="http://www.w3.org/1999/xlink" version="1.1" width="679" height="2736" style="display: inline; background: rgb(251, 251, 251);" viewBox="0 0 679 2736"><defs id="kity_defs_7"><linearGradient id="kity_linearGradient_17" x1="0" y1="0" x2="0" y2="1"><stop id="kity_stop_18" offset="0" stop-color="rgb(255, 255, 255)"></stop><stop id="kity_stop_19" offset="1" stop-color="rgb(204, 204, 204)"></stop></linearGradient><marker id="kity_marker_2" orient="auto" refX="6" refY="0" viewBox="-7 -7 14 14" markerWidth="7" markerHeight="7" markerUnits="userSpaceOnUse"><path id="kity_path_3" fill="rgb(115, 161, 191)" stroke="none" d="M6,0A6,6,0,1,1,-6,0A6,6,0,1,1,6,0"></path></marker></defs><g id="kity_g_8"><g id="minder1" text-rendering="optimize-speed"><g id="minder_connect_group1"><path id="kity_path_31" fill="none" stroke="rgb(115, 161, 191)" stroke-width="1" d="M81.5,1773.5A93,1,0,0,0,174.5,1774.5"></path><path id="kity_path_33" fill="none" stroke="rgb(115, 161, 191)" stroke-width="1" d="M269.5,1774.5C288.5,1774.5,288.5,177.5,307.5,177.5L400.5,177.5"></path><path id="kity_path_35" fill="none" stroke="rgb(115, 161, 191)" stroke-width="1" d="M400.5,177.5C415.5,177.5,415.5,63.5,430.5,63.5L532.5,63.5"></path><path id="kity_path_37" fill="none" stroke="rgb(115, 161, 191)" stroke-width="1" d="M400.5,177.5C415.5,177.5,415.5,133.5,430.5,133.5L532.5,133.5"></path><path id="kity_path_39" fill="none" stroke="rgb(115, 161, 191)" stroke-width="1" d="M400.5,177.5C415.5,177.5,415.5,221.5,430.5,221.5L529.5,221.5"></path><path id="kity_path_41" fill="none" stroke="rgb(115, 161, 191)" stroke-width="1" d="M400.5,177.5C415.5,177.5,415.5,291.5,430.5,291.5L544.5,291.5"></path><path id="kity_path_43" fill="none" stroke="rgb(115, 161, 191)" stroke-width="1" d="M269.5,1774.5C302,1774.5,302,435.5,334.5,435.5L412.5,435.5"></path><path id="kity_path_45" fill="none" stroke="rgb(115, 161, 191)" stroke-width="1" d="M412.5,435.5C417,435.5,417,321.5,421.5,321.5L475.5,321.5"></path><path id="kity_path_47" fill="none" stroke="rgb(115, 161, 191)" stroke-width="1" d="M412.5,435.5C424.5,435.5,424.5,379.5,436.5,379.5L598.5,379.5"></path><path id="kity_path_49" fill="none" stroke="rgb(115, 161, 191)" stroke-width="1" d="M412.5,435.5C427,435.5,427,455.5,441.5,455.5L591.5,455.5"></path><path id="kity_path_51" fill="none" stroke="rgb(115, 161, 191)" stroke-width="1" d="M269.5,1774.5C306,1774.5,306,694.5,342.5,694.5L408.5,694.5"></path><path id="kity_path_53" fill="none" stroke="rgb(115, 161, 191)" stroke-width="1" d="M408.5,694.5C423.5,694.5,423.5,497.5,438.5,497.5L579.5,497.5"></path><path id="kity_path_55" fill="none" stroke="rgb(115, 161, 191)" stroke-width="1" d="M408.5,694.5C425.5,694.5,425.5,546.5,442.5,546.5L544.5,546.5"></path><path id="kity_path_57" fill="none" stroke="rgb(115, 161, 191)" stroke-width="1" d="M408.5,694.5C432,694.5,432,613.5,455.5,613.5L545.5,613.5"></path><path id="kity_path_59" fill="none" stroke="rgb(115, 161, 191)" stroke-width="1" d="M408.5,694.5C429,694.5,429,663.5,449.5,663.5L539.5,663.5"></path><path id="kity_path_61" fill="none" stroke="rgb(115, 161, 191)" stroke-width="1" d="M408.5,694.5C435.5,694.5,435.5,711.5,462.5,711.5L540.5,711.5"></path><path id="kity_path_63" fill="none" stroke="rgb(115, 161, 191)" stroke-width="1" d="M408.5,694.5C436.5,694.5,436.5,764.5,464.5,764.5L542.5,764.5"></path><path id="kity_path_65" fill="none" stroke="rgb(115, 161, 191)" stroke-width="1" d="M269.5,1774.5C294.5,1774.5,294.5,1015.5,319.5,1015.5L433.5,1015.5"></path><path id="kity_path_67" fill="none" stroke="rgb(115, 161, 191)" stroke-width="1" d="M433.5,1015.5C453.5,1015.5,453.5,835.5,473.5,835.5L599.5,835.5"></path><path id="kity_path_69" fill="none" stroke="rgb(115, 161, 191)" stroke-width="1" d="M433.5,1015.5C459.5,1015.5,459.5,900.5,485.5,900.5L599.5,900.5"></path><path id="kity_path_71" fill="none" stroke="rgb(115, 161, 191)" stroke-width="1" d="M433.5,1015.5C464,1015.5,464,964.5,494.5,964.5L572.5,964.5"></path><path id="kity_path_73" fill="none" stroke="rgb(115, 161, 191)" stroke-width="1" d="M433.5,1015.5C456.5,1015.5,456.5,1043.5,479.5,1043.5L593.5,1043.5"></path><path id="kity_path_75" fill="none" stroke="rgb(115, 161, 191)" stroke-width="1" d="M269.5,1774.5C312.5,1774.5,312.5,1236.5,355.5,1236.5L433.5,1236.5"></path><path id="kity_path_77" fill="none" stroke="rgb(115, 161, 191)" stroke-width="1" d="M433.5,1236.5C446.5,1236.5,446.5,1104.5,459.5,1104.5L537.5,1104.5"></path><path id="kity_path_79" fill="none" stroke="rgb(115, 161, 191)" stroke-width="1" d="M433.5,1236.5C447.5,1236.5,447.5,1173.5,461.5,1173.5L551.5,1173.5"></path><path id="kity_path_81" fill="none" stroke="rgb(115, 161, 191)" stroke-width="1" d="M433.5,1236.5C449,1236.5,449,1251.5,464.5,1251.5L542.5,1251.5"></path><path id="kity_path_83" fill="none" stroke="rgb(115, 161, 191)" stroke-width="1" d="M269.5,1774.5C321,1774.5,321,1501.5,372.5,1501.5L426.5,1501.5"></path><path id="kity_path_85" fill="none" stroke="rgb(115, 161, 191)" stroke-width="1" d="M426.5,1501.5C438.5,1501.5,438.5,1319.5,450.5,1319.5L516.5,1319.5"></path><path id="kity_path_87" fill="none" stroke="rgb(115, 161, 191)" stroke-width="1" d="M426.5,1501.5C438.5,1501.5,438.5,1385.5,450.5,1385.5L552.5,1385.5"></path><path id="kity_path_89" fill="none" stroke="rgb(115, 161, 191)" stroke-width="1" d="M426.5,1501.5C439.5,1501.5,439.5,1448.5,452.5,1448.5L566.5,1448.5"></path><path id="kity_path_91" fill="none" stroke="rgb(115, 161, 191)" stroke-width="1" d="M426.5,1501.5C443.5,1501.5,443.5,1502.5,460.5,1502.5L550.5,1502.5"></path><path id="kity_path_93" fill="none" stroke="rgb(115, 161, 191)" stroke-width="1" d="M426.5,1501.5C438.5,1501.5,438.5,1564.5,450.5,1564.5L552.5,1564.5"></path><path id="kity_path_95" fill="none" stroke="rgb(115, 161, 191)" stroke-width="1" d="M269.5,1774.5C323,1774.5,323,1864.5,376.5,1864.5L442.5,1864.5"></path><path id="kity_path_97" fill="none" stroke="rgb(115, 161, 191)" stroke-width="1" d="M442.5,1864.5C455.5,1864.5,455.5,1617.5,468.5,1617.5L522.5,1617.5"></path><path id="kity_path_99" fill="none" stroke="rgb(115, 161, 191)" stroke-width="1" d="M442.5,1864.5C455,1864.5,455,1677.5,467.5,1677.5L521.5,1677.5"></path><path id="kity_path_101" fill="none" stroke="rgb(115, 161, 191)" stroke-width="1" d="M442.5,1864.5C460.5,1864.5,460.5,1729.5,478.5,1729.5L532.5,1729.5"></path><path id="kity_path_103" fill="none" stroke="rgb(115, 161, 191)" stroke-width="1" d="M442.5,1864.5C455.5,1864.5,455.5,1783.5,468.5,1783.5L582.5,1783.5"></path><path id="kity_path_105" fill="none" stroke="rgb(115, 161, 191)" stroke-width="1" d="M442.5,1864.5C458.5,1864.5,458.5,1838.5,474.5,1838.5L552.5,1838.5"></path><path id="kity_path_107" fill="none" stroke="rgb(115, 161, 191)" stroke-width="1" d="M442.5,1864.5C452.5,1864.5,452.5,1883.5,462.5,1883.5L588.5,1883.5"></path><path id="kity_path_109" fill="none" stroke="rgb(115, 161, 191)" stroke-width="1" d="M442.5,1864.5C460.5,1864.5,460.5,1946.5,478.5,1946.5L568.5,1946.5"></path><path id="kity_path_111" fill="none" stroke="rgb(115, 161, 191)" stroke-width="1" d="M269.5,1774.5C326,1774.5,326,2008.5,382.5,2008.5L460.5,2008.5"></path><path id="kity_path_113" fill="none" stroke="rgb(115, 161, 191)" stroke-width="1" d="M269.5,1774.5C324.5,1774.5,324.5,2198.5,379.5,2198.5L433.5,2198.5"></path><path id="kity_path_115" fill="none" stroke="rgb(115, 161, 191)" stroke-width="1" d="M433.5,2198.5C465.5,2198.5,465.5,2064.5,497.5,2064.5L659.5,2064.5"></path><path id="kity_path_117" fill="none" stroke="rgb(115, 161, 191)" stroke-width="1" d="M433.5,2198.5C479.5,2198.5,479.5,2122.5,525.5,2122.5L615.5,2122.5"></path><path id="kity_path_119" fill="none" stroke="rgb(115, 161, 191)" stroke-width="1" d="M433.5,2198.5C482,2198.5,482,2187.5,530.5,2187.5L584.5,2187.5"></path><path id="kity_path_121" fill="none" stroke="rgb(115, 161, 191)" stroke-width="1" d="M433.5,2198.5C475.5,2198.5,475.5,2240.5,517.5,2240.5L595.5,2240.5"></path><path id="kity_path_123" fill="none" stroke="rgb(115, 161, 191)" stroke-width="1" d="M269.5,1774.5C317,1774.5,317,2319.5,364.5,2319.5L622.5,2319.5"></path><path id="kity_path_125" fill="none" stroke="rgb(115, 161, 191)" stroke-width="1" d="M269.5,1774.5C318,1774.5,318,2561.5,366.5,2561.5L432.5,2561.5"></path><path id="kity_path_127" fill="none" stroke="rgb(115, 161, 191)" stroke-width="1" d="M432.5,2561.5C460.5,2561.5,460.5,2376.5,488.5,2376.5L566.5,2376.5"></path><path id="kity_path_129" fill="none" stroke="rgb(115, 161, 191)" stroke-width="1" d="M432.5,2561.5C453.5,2561.5,453.5,2439.5,474.5,2439.5L588.5,2439.5"></path><path id="kity_path_131" fill="none" stroke="rgb(115, 161, 191)" stroke-width="1" d="M432.5,2561.5C461,2561.5,461,2495.5,489.5,2495.5L567.5,2495.5"></path><path id="kity_path_133" fill="none" stroke="rgb(115, 161, 191)" stroke-width="1" d="M432.5,2561.5C463,2561.5,463,2559.5,493.5,2559.5L571.5,2559.5"></path><path id="kity_path_135" fill="none" stroke="rgb(115, 161, 191)" stroke-width="1" d="M432.5,2561.5C463.5,2561.5,463.5,2617.5,494.5,2617.5L572.5,2617.5"></path><path id="kity_path_137" fill="none" stroke="rgb(115, 161, 191)" stroke-width="1" d="M269.5,1774.5C313.5,1774.5,313.5,2716.5,357.5,2716.5L519.5,2716.5"></path></g><g id="minder_node1"><path id="node_outline1" fill="rgb(115, 161, 191)" stroke="rgb(115, 161, 191)" d="M25.5,1753.5h112a5,5,0,0,1,5,5v30a5,5,0,0,1,-5,5h-112a5,5,0,0,1,-5,-5v-30a5,5,0,0,1,5,-5z" stroke-width="3"></path><g id="node_text1" fill="white"><text id="kity_text_22" text-rendering="inherit" font-size="16" dy=".8em" y="1763.0999999046326" x="44.5">Bootstrap</text></g></g><g id="kity_g_12"><path id="kity_path_13" fill="none" stroke="none" d="M44.5,1773.5h0v0h0z"></path></g><g id="kity_g_14"><path id="kity_path_15" fill="none" stroke="none" d="M44.5,1773.5h0v0h0z"></path><path id="kity_path_16" fill="none" stroke="none"></path></g><g id="minder_node2"><g id="node_expander54" style="cursor: pointer;"><path id="kity_path_467" fill="white" stroke="gray" d="M175.5,1774.5A6,6,0,1,1,163.5,1774.5A6,6,0,1,1,175.5,1774.5"></path><path id="kity_path_468" fill="none" stroke="gray" d="M165,1774.5L174,1774.5"></path></g><path id="node_outline55" fill="rgb(238, 243, 246)" stroke="rgb(115, 161, 191)" d="M179.5,1758.5h87a3,3,0,0,1,3,3v26a3,3,0,0,1,-3,3h-87a3,3,0,0,1,-3,-3v-26a3,3,0,0,1,3,-3z" stroke-width="1"></path><g id="node_text55" fill="black"><text id="kity_text_252" text-rendering="inherit" font-size="14" dy=".8em" y="1765.4000000953674" x="221.5">组件</text></g><g id="node_priority1"><path id="kity_path_471" fill="#006300" stroke="none" d="M197,1778c0,3.866,3.134,7,7,7h6c3.866,0,7,-3.134,7,-7V1772H197V1778z"></path><path id="kity_path_472" fill="#00AF00" stroke="none" d="M217,1775c0,3.866,-3.134,7,-7,7H204c-3.866,0,-7,-3.134,-7,-7V1772c0,-3.866,3.134,-7,7,-7h6c3.866,0,7,3.134,7,7V1775z" opacity="0.8"></path><text id="kity_text_473" text-rendering="geometricPrecision" x="206" y="1774.5" text-anchor="middle" font-style="italic" font-size="12" fill="white" dy="4.5">3</text></g></g><g id="minder_node3"><g id="node_expander5" style="cursor: pointer;"><path id="kity_path_320" fill="white" stroke="gray" d="M317.5,154.5A6,6,0,1,1,305.5,154.5A6,6,0,1,1,317.5,154.5"></path><path id="kity_path_321" fill="none" stroke="gray" d="M307,154.5L316,154.5"></path></g><path id="node_outline6" fill="none" stroke="none" d="M322.5,134.5h73a5,5,0,0,1,5,5v30a5,5,0,0,1,-5,5h-73a5,5,0,0,1,-5,-5v-30a5,5,0,0,1,5,-5z"></path><g id="node_text6" fill="black"><text id="kity_text_152" text-rendering="inherit" font-size="12" dy=".8em" y="137.70000004768372" x="327.5">Glyphicons</text><text id="kity_text_153" text-rendering="inherit" font-size="12" dy=".8em" y="155.70000004768372" x="327.5">字体图标</text></g></g><g id="minder_node4"><g id="node_expander1" style="cursor: pointer;" display="none"><path id="kity_path_308" fill="white" stroke="gray" d="M440.5,40.5A6,6,0,1,1,428.5,40.5A6,6,0,1,1,440.5,40.5"></path><path id="kity_path_309" fill="none" stroke="gray"></path></g><path id="node_outline2" fill="none" stroke="none" d="M445.5,20.5h82a5,5,0,0,1,5,5v30a5,5,0,0,1,-5,5h-82a5,5,0,0,1,-5,-5v-30a5,5,0,0,1,5,-5z"></path><g id="node_text2" fill="black"><text id="kity_text_139" text-rendering="inherit" font-size="12" dy=".8em" y="23.700000047683716" x="450.5">不和其他组件</text><text id="kity_text_140" text-rendering="inherit" font-size="12" dy=".8em" y="41.700000047683716" x="450.5">混合使用</text></g></g><g id="minder_node5"><g id="node_expander2" style="cursor: pointer;" display="none"><path id="kity_path_311" fill="white" stroke="gray" d="M440.5,110.5A6,6,0,1,1,428.5,110.5A6,6,0,1,1,440.5,110.5"></path><path id="kity_path_312" fill="none" stroke="gray"></path></g><path id="node_outline3" fill="none" stroke="none" d="M445.5,90.5h82a5,5,0,0,1,5,5v30a5,5,0,0,1,-5,5h-82a5,5,0,0,1,-5,-5v-30a5,5,0,0,1,5,-5z"></path><g id="node_text3" fill="black"><text id="kity_text_142" text-rendering="inherit" font-size="12" dy=".8em" y="93.70000004768372" x="450.5">只对内容为空</text><text id="kity_text_143" text-rendering="inherit" font-size="12" dy=".8em" y="111.70000004768372" x="450.5">的元素起作用</text></g></g><g id="minder_node6"><g id="node_expander3" style="cursor: pointer;" display="none"><path id="kity_path_314" fill="white" stroke="gray" d="M440.5,189.5A6,6,0,1,1,428.5,189.5A6,6,0,1,1,440.5,189.5"></path><path id="kity_path_315" fill="none" stroke="gray"></path></g><path id="node_outline4" fill="none" stroke="none" d="M445.5,160.5h79a5,5,0,0,1,5,5v48a5,5,0,0,1,-5,5h-79a5,5,0,0,1,-5,-5v-48a5,5,0,0,1,5,-5z"></path><g id="node_text4" fill="black"><text id="kity_text_145" text-rendering="inherit" font-size="12" dy=".8em" y="163.70000004768372" x="450.5">将字体文字</text><text id="kity_text_146" text-rendering="inherit" font-size="12" dy=".8em" y="181.70000004768372" x="450.5">放到../fonts/</text><text id="kity_text_147" text-rendering="inherit" font-size="12" dy=".8em" y="199.70000004768372" x="450.5">目录中</text></g></g><g id="minder_node7"><g id="node_expander4" style="cursor: pointer;" display="none"><path id="kity_path_317" fill="white" stroke="gray" d="M440.5,268.5A6,6,0,1,1,428.5,268.5A6,6,0,1,1,440.5,268.5"></path><path id="kity_path_318" fill="none" stroke="gray"></path></g><path id="node_outline5" fill="none" stroke="none" d="M445.5,248.5h94a5,5,0,0,1,5,5v30a5,5,0,0,1,-5,5h-94a5,5,0,0,1,-5,-5v-30a5,5,0,0,1,5,-5z"></path><g id="node_text5" fill="black"><text id="kity_text_149" text-rendering="inherit" font-size="12" dy=".8em" y="251.70000004768372" x="450.5">只要出现文字</text><text id="kity_text_150" text-rendering="inherit" font-size="12" dy=".8em" y="269.7000000476837" x="450.5">的地方都可以用</text></g></g><g id="minder_node8"><g id="node_expander9" style="cursor: pointer;"><path id="kity_path_332" fill="white" stroke="gray" d="M344.5,421.5A6,6,0,1,1,332.5,421.5A6,6,0,1,1,344.5,421.5"></path><path id="kity_path_333" fill="none" stroke="gray" d="M334,421.5L343,421.5"></path></g><path id="node_outline10" fill="none" stroke="none" d="M349.5,410.5h58a5,5,0,0,1,5,5v12a5,5,0,0,1,-5,5h-58a5,5,0,0,1,-5,-5v-12a5,5,0,0,1,5,-5z"></path><g id="node_text10" fill="black"><text id="kity_text_161" text-rendering="inherit" font-size="12" dy=".8em" y="413.7000000476837" x="354.5">下拉菜单</text></g></g><g id="minder_node9"><g id="node_expander6" style="cursor: pointer;" display="none"><path id="kity_path_323" fill="white" stroke="gray" d="M431.5,307.5A6,6,0,1,1,419.5,307.5A6,6,0,1,1,431.5,307.5"></path><path id="kity_path_324" fill="none" stroke="gray"></path></g><path id="node_outline7" fill="none" stroke="none" d="M436.5,296.5h34a5,5,0,0,1,5,5v12a5,5,0,0,1,-5,5h-34a5,5,0,0,1,-5,-5v-12a5,5,0,0,1,5,-5z"></path><g id="node_text7" fill="black"><text id="kity_text_155" text-rendering="inherit" font-size="12" dy=".8em" y="299.7000000476837" x="441.5">对其</text></g></g><g id="minder_node10"><g id="node_expander7" style="cursor: pointer;" display="none"><path id="kity_path_326" fill="white" stroke="gray" d="M446.5,365.5A6,6,0,1,1,434.5,365.5A6,6,0,1,1,446.5,365.5"></path><path id="kity_path_327" fill="none" stroke="gray"></path></g><path id="node_outline8" fill="none" stroke="none" d="M451.5,354.5h142a5,5,0,0,1,5,5v12a5,5,0,0,1,-5,5h-142a5,5,0,0,1,-5,-5v-12a5,5,0,0,1,5,-5z"></path><g id="node_text8" fill="black"><text id="kity_text_157" text-rendering="inherit" font-size="12" dy=".8em" y="357.7000000476837" x="456.5">为下拉菜单设置一个标题</text></g></g><g id="minder_node11"><g id="node_expander8" style="cursor: pointer;" display="none"><path id="kity_path_329" fill="white" stroke="gray" d="M451.5,441.5A6,6,0,1,1,439.5,441.5A6,6,0,1,1,451.5,441.5"></path><path id="kity_path_330" fill="none" stroke="gray"></path></g><path id="node_outline9" fill="none" stroke="none" d="M456.5,430.5h130a5,5,0,0,1,5,5v12a5,5,0,0,1,-5,5h-130a5,5,0,0,1,-5,-5v-12a5,5,0,0,1,5,-5z"></path><g id="node_text9" fill="black"><text id="kity_text_159" text-rendering="inherit" font-size="12" dy=".8em" y="433.7000000476837" x="461.5">为下拉菜单设置分割线</text></g></g><g id="minder_node12"><g id="node_expander16" style="cursor: pointer;"><path id="kity_path_353" fill="white" stroke="gray" d="M352.5,680.5A6,6,0,1,1,340.5,680.5A6,6,0,1,1,352.5,680.5"></path><path id="kity_path_354" fill="none" stroke="gray" d="M342,680.5L351,680.5"></path></g><path id="node_outline17" fill="none" stroke="none" d="M357.5,669.5h46a5,5,0,0,1,5,5v12a5,5,0,0,1,-5,5h-46a5,5,0,0,1,-5,-5v-12a5,5,0,0,1,5,-5z"></path><g id="node_text17" fill="black"><text id="kity_text_175" text-rendering="inherit" font-size="12" dy=".8em" y="672.7000000476837" x="362.5">按钮组</text></g></g><g id="minder_node13"><g id="node_expander10" style="cursor: pointer;" display="none"><path id="kity_path_335" fill="white" stroke="gray" d="M448.5,483.5A6,6,0,1,1,436.5,483.5A6,6,0,1,1,448.5,483.5"></path><path id="kity_path_336" fill="none" stroke="gray"></path></g><path id="node_outline11" fill="none" stroke="none" d="M453.5,472.5h121a5,5,0,0,1,5,5v12a5,5,0,0,1,-5,5h-121a5,5,0,0,1,-5,-5v-12a5,5,0,0,1,5,-5z"></path><g id="node_text11" fill="black"><text id="kity_text_163" text-rendering="inherit" font-size="12" dy=".8em" y="475.7000000476837" x="458.5">基本实例.btn-group</text></g></g><g id="minder_node14"><g id="node_expander11" style="cursor: pointer;" display="none"><path id="kity_path_338" fill="white" stroke="gray" d="M452.5,532.5A6,6,0,1,1,440.5,532.5A6,6,0,1,1,452.5,532.5"></path><path id="kity_path_339" fill="none" stroke="gray"></path></g><path id="node_outline12" fill="none" stroke="none" d="M457.5,521.5h82a5,5,0,0,1,5,5v12a5,5,0,0,1,-5,5h-82a5,5,0,0,1,-5,-5v-12a5,5,0,0,1,5,-5z"></path><g id="node_text12" fill="black"><text id="kity_text_165" text-rendering="inherit" font-size="12" dy=".8em" y="524.7000000476837" x="462.5">按钮组工具栏</text></g></g><g id="minder_node15"><g id="node_expander12" style="cursor: pointer;" display="none"><path id="kity_path_341" fill="white" stroke="gray" d="M465.5,599.5A6,6,0,1,1,453.5,599.5A6,6,0,1,1,465.5,599.5"></path><path id="kity_path_342" fill="none" stroke="gray"></path></g><path id="node_outline13" fill="none" stroke="none" d="M470.5,588.5h70a5,5,0,0,1,5,5v12a5,5,0,0,1,-5,5h-70a5,5,0,0,1,-5,-5v-12a5,5,0,0,1,5,-5z"></path><g id="node_text13" fill="black"><text id="kity_text_167" text-rendering="inherit" font-size="12" dy=".8em" y="591.7000000476837" x="475.5">按钮组尺寸</text></g></g><g id="minder_node16"><g id="node_expander13" style="cursor: pointer;" display="none"><path id="kity_path_344" fill="white" stroke="gray" d="M459.5,649.5A6,6,0,1,1,447.5,649.5A6,6,0,1,1,459.5,649.5"></path><path id="kity_path_345" fill="none" stroke="gray"></path></g><path id="node_outline14" fill="none" stroke="none" d="M464.5,638.5h70a5,5,0,0,1,5,5v12a5,5,0,0,1,-5,5h-70a5,5,0,0,1,-5,-5v-12a5,5,0,0,1,5,-5z"></path><g id="node_text14" fill="black"><text id="kity_text_169" text-rendering="inherit" font-size="12" dy=".8em" y="641.7000000476837" x="469.5">按钮组嵌套</text></g></g><g id="minder_node17"><g id="node_expander14" style="cursor: pointer;" display="none"><path id="kity_path_347" fill="white" stroke="gray" d="M472.5,697.5A6,6,0,1,1,460.5,697.5A6,6,0,1,1,472.5,697.5"></path><path id="kity_path_348" fill="none" stroke="gray"></path></g><path id="node_outline15" fill="none" stroke="none" d="M477.5,686.5h58a5,5,0,0,1,5,5v12a5,5,0,0,1,-5,5h-58a5,5,0,0,1,-5,-5v-12a5,5,0,0,1,5,-5z"></path><g id="node_text15" fill="black"><text id="kity_text_171" text-rendering="inherit" font-size="12" dy=".8em" y="689.7000000476837" x="482.5">垂直排列</text></g></g><g id="minder_node18"><g id="node_expander15" style="cursor: pointer;" display="none"><path id="kity_path_350" fill="white" stroke="gray" d="M474.5,750.5A6,6,0,1,1,462.5,750.5A6,6,0,1,1,474.5,750.5"></path><path id="kity_path_351" fill="none" stroke="gray"></path></g><path id="node_outline16" fill="none" stroke="none" d="M479.5,739.5h58a5,5,0,0,1,5,5v12a5,5,0,0,1,-5,5h-58a5,5,0,0,1,-5,-5v-12a5,5,0,0,1,5,-5z"></path><g id="node_text16" fill="black"><text id="kity_text_173" text-rendering="inherit" font-size="12" dy=".8em" y="742.7000000476837" x="484.5">两端对齐</text></g></g><g id="minder_node19"><g id="node_expander21" style="cursor: pointer;"><path id="kity_path_368" fill="white" stroke="gray" d="M329.5,1001.5A6,6,0,1,1,317.5,1001.5A6,6,0,1,1,329.5,1001.5"></path><path id="kity_path_369" fill="none" stroke="gray" d="M319,1001.5L328,1001.5"></path></g><path id="node_outline22" fill="none" stroke="none" d="M334.5,990.5h94a5,5,0,0,1,5,5v12a5,5,0,0,1,-5,5h-94a5,5,0,0,1,-5,-5v-12a5,5,0,0,1,5,-5z"></path><g id="node_text22" fill="black"><text id="kity_text_186" text-rendering="inherit" font-size="12" dy=".8em" y="993.7000000476837" x="339.5">按钮式下拉菜单</text></g></g><g id="minder_node20"><g id="node_expander17" style="cursor: pointer;" display="none"><path id="kity_path_356" fill="white" stroke="gray" d="M483.5,821.5A6,6,0,1,1,471.5,821.5A6,6,0,1,1,483.5,821.5"></path><path id="kity_path_357" fill="none" stroke="gray"></path></g><path id="node_outline18" fill="none" stroke="none" d="M488.5,810.5h106a5,5,0,0,1,5,5v12a5,5,0,0,1,-5,5h-106a5,5,0,0,1,-5,-5v-12a5,5,0,0,1,5,-5z"></path><g id="node_text18" fill="black"><text id="kity_text_177" text-rendering="inherit" font-size="12" dy=".8em" y="813.7000000476837" x="493.5">单按钮式下拉菜单</text></g></g><g id="minder_node21"><g id="node_expander18" style="cursor: pointer;" display="none"><path id="kity_path_359" fill="white" stroke="gray" d="M495.5,886.5A6,6,0,1,1,483.5,886.5A6,6,0,1,1,495.5,886.5"></path><path id="kity_path_360" fill="none" stroke="gray"></path></g><path id="node_outline19" fill="none" stroke="none" d="M500.5,875.5h94a5,5,0,0,1,5,5v12a5,5,0,0,1,-5,5h-94a5,5,0,0,1,-5,-5v-12a5,5,0,0,1,5,-5z"></path><g id="node_text19" fill="black"><text id="kity_text_179" text-rendering="inherit" font-size="12" dy=".8em" y="878.7000000476837" x="505.5">分裂式下拉菜单</text></g></g><g id="minder_node22"><g id="node_expander19" style="cursor: pointer;" display="none"><path id="kity_path_362" fill="white" stroke="gray" d="M504.5,950.5A6,6,0,1,1,492.5,950.5A6,6,0,1,1,504.5,950.5"></path><path id="kity_path_363" fill="none" stroke="gray"></path></g><path id="node_outline20" fill="none" stroke="none" d="M509.5,939.5h58a5,5,0,0,1,5,5v12a5,5,0,0,1,-5,5h-58a5,5,0,0,1,-5,-5v-12a5,5,0,0,1,5,-5z"></path><g id="node_text20" fill="black"><text id="kity_text_181" text-rendering="inherit" font-size="12" dy=".8em" y="942.7000000476837" x="514.5">按钮尺寸</text></g></g><g id="minder_node23"><g id="node_expander20" style="cursor: pointer;" display="none"><path id="kity_path_365" fill="white" stroke="gray" d="M489.5,1020.5A6,6,0,1,1,477.5,1020.5A6,6,0,1,1,489.5,1020.5"></path><path id="kity_path_366" fill="none" stroke="gray"></path></g><path id="node_outline21" fill="none" stroke="none" d="M494.5,1000.5h94a5,5,0,0,1,5,5v30a5,5,0,0,1,-5,5h-94a5,5,0,0,1,-5,-5v-30a5,5,0,0,1,5,-5z"></path><g id="node_text21" fill="black"><text id="kity_text_183" text-rendering="inherit" font-size="12" dy=".8em" y="1003.7000000476837" x="499.5">向上弹出式菜单</text><text id="kity_text_184" text-rendering="inherit" font-size="12" dy=".8em" y="1021.7000000476837" x="499.5">.dropup</text></g></g><g id="minder_node24"><g id="node_expander25" style="cursor: pointer;"><path id="kity_path_380" fill="white" stroke="gray" d="M365.5,1222.5A6,6,0,1,1,353.5,1222.5A6,6,0,1,1,365.5,1222.5"></path><path id="kity_path_381" fill="none" stroke="gray" d="M355,1222.5L364,1222.5"></path></g><path id="node_outline26" fill="none" stroke="none" d="M370.5,1211.5h58a5,5,0,0,1,5,5v12a5,5,0,0,1,-5,5h-58a5,5,0,0,1,-5,-5v-12a5,5,0,0,1,5,-5z"></path><g id="node_text26" fill="black"><text id="kity_text_194" text-rendering="inherit" font-size="12" dy=".8em" y="1214.7000000476837" x="375.5">输入框组</text></g></g><g id="minder_node25"><g id="node_expander22" style="cursor: pointer;" display="none"><path id="kity_path_371" fill="white" stroke="gray" d="M469.5,1090.5A6,6,0,1,1,457.5,1090.5A6,6,0,1,1,469.5,1090.5"></path><path id="kity_path_372" fill="none" stroke="gray"></path></g><path id="node_outline23" fill="none" stroke="none" d="M474.5,1079.5h58a5,5,0,0,1,5,5v12a5,5,0,0,1,-5,5h-58a5,5,0,0,1,-5,-5v-12a5,5,0,0,1,5,-5z"></path><g id="node_text23" fill="black"><text id="kity_text_188" text-rendering="inherit" font-size="12" dy=".8em" y="1082.7000000476837" x="479.5">基本实例</text></g></g><g id="minder_node26"><g id="node_expander23" style="cursor: pointer;" display="none"><path id="kity_path_374" fill="white" stroke="gray" d="M471.5,1159.5A6,6,0,1,1,459.5,1159.5A6,6,0,1,1,471.5,1159.5"></path><path id="kity_path_375" fill="none" stroke="gray"></path></g><path id="node_outline24" fill="none" stroke="none" d="M476.5,1148.5h70a5,5,0,0,1,5,5v12a5,5,0,0,1,-5,5h-70a5,5,0,0,1,-5,-5v-12a5,5,0,0,1,5,-5z"></path><g id="node_text24" fill="black"><text id="kity_text_190" text-rendering="inherit" font-size="12" dy=".8em" y="1151.7000000476837" x="481.5">输入框尺寸</text></g></g><g id="minder_node27"><g id="node_expander24" style="cursor: pointer;" display="none"><path id="kity_path_377" fill="white" stroke="gray" d="M474.5,1237.5A6,6,0,1,1,462.5,1237.5A6,6,0,1,1,474.5,1237.5"></path><path id="kity_path_378" fill="none" stroke="gray"></path></g><path id="node_outline25" fill="none" stroke="none" d="M479.5,1226.5h58a5,5,0,0,1,5,5v12a5,5,0,0,1,-5,5h-58a5,5,0,0,1,-5,-5v-12a5,5,0,0,1,5,-5z"></path><g id="node_text25" fill="black"><text id="kity_text_192" text-rendering="inherit" font-size="12" dy=".8em" y="1229.7000000476837" x="484.5">嵌入元素</text></g></g><g id="minder_node28"><g id="node_expander31" style="cursor: pointer;"><path id="kity_path_398" fill="white" stroke="gray" d="M382.5,1487.5A6,6,0,1,1,370.5,1487.5A6,6,0,1,1,382.5,1487.5"></path><path id="kity_path_399" fill="none" stroke="gray" d="M372,1487.5L381,1487.5"></path></g><path id="node_outline32" fill="none" stroke="none" d="M387.5,1476.5h34a5,5,0,0,1,5,5v12a5,5,0,0,1,-5,5h-34a5,5,0,0,1,-5,-5v-12a5,5,0,0,1,5,-5z"></path><g id="node_text32" fill="black"><text id="kity_text_206" text-rendering="inherit" font-size="12" dy=".8em" y="1479.7000000476837" x="392.5">导航</text></g></g><g id="minder_node29"><g id="node_expander26" style="cursor: pointer;" display="none"><path id="kity_path_383" fill="white" stroke="gray" d="M460.5,1305.5A6,6,0,1,1,448.5,1305.5A6,6,0,1,1,460.5,1305.5"></path><path id="kity_path_384" fill="none" stroke="gray"></path></g><path id="node_outline27" fill="none" stroke="none" d="M465.5,1294.5h46a5,5,0,0,1,5,5v12a5,5,0,0,1,-5,5h-46a5,5,0,0,1,-5,-5v-12a5,5,0,0,1,5,-5z"></path><g id="node_text27" fill="black"><text id="kity_text_196" text-rendering="inherit" font-size="12" dy=".8em" y="1297.7000000476837" x="470.5">标签页</text></g></g><g id="minder_node30"><g id="node_expander27" style="cursor: pointer;" display="none"><path id="kity_path_386" fill="white" stroke="gray" d="M460.5,1371.5A6,6,0,1,1,448.5,1371.5A6,6,0,1,1,460.5,1371.5"></path><path id="kity_path_387" fill="none" stroke="gray"></path></g><path id="node_outline28" fill="none" stroke="none" d="M465.5,1360.5h82a5,5,0,0,1,5,5v12a5,5,0,0,1,-5,5h-82a5,5,0,0,1,-5,-5v-12a5,5,0,0,1,5,-5z"></path><g id="node_text28" fill="black"><text id="kity_text_198" text-rendering="inherit" font-size="12" dy=".8em" y="1363.7000000476837" x="470.5">胶囊式标签页</text></g></g><g id="minder_node31"><g id="node_expander28" style="cursor: pointer;" display="none"><path id="kity_path_389" fill="white" stroke="gray" d="M462.5,1434.5A6,6,0,1,1,450.5,1434.5A6,6,0,1,1,462.5,1434.5"></path><path id="kity_path_390" fill="none" stroke="gray"></path></g><path id="node_outline29" fill="none" stroke="none" d="M467.5,1423.5h94a5,5,0,0,1,5,5v12a5,5,0,0,1,-5,5h-94a5,5,0,0,1,-5,-5v-12a5,5,0,0,1,5,-5z"></path><g id="node_text29" fill="black"><text id="kity_text_200" text-rendering="inherit" font-size="12" dy=".8em" y="1426.7000000476837" x="472.5">两端对齐标签页</text></g></g><g id="minder_node32"><g id="node_expander29" style="cursor: pointer;" display="none"><path id="kity_path_392" fill="white" stroke="gray" d="M470.5,1488.5A6,6,0,1,1,458.5,1488.5A6,6,0,1,1,470.5,1488.5"></path><path id="kity_path_393" fill="none" stroke="gray"></path></g><path id="node_outline30" fill="none" stroke="none" d="M475.5,1477.5h70a5,5,0,0,1,5,5v12a5,5,0,0,1,-5,5h-70a5,5,0,0,1,-5,-5v-12a5,5,0,0,1,5,-5z"></path><g id="node_text30" fill="black"><text id="kity_text_202" text-rendering="inherit" font-size="12" dy=".8em" y="1480.7000000476837" x="480.5">禁用的链接</text></g></g><g id="minder_node33"><g id="node_expander30" style="cursor: pointer;" display="none"><path id="kity_path_395" fill="white" stroke="gray" d="M460.5,1550.5A6,6,0,1,1,448.5,1550.5A6,6,0,1,1,460.5,1550.5"></path><path id="kity_path_396" fill="none" stroke="gray"></path></g><path id="node_outline31" fill="none" stroke="none" d="M465.5,1539.5h82a5,5,0,0,1,5,5v12a5,5,0,0,1,-5,5h-82a5,5,0,0,1,-5,-5v-12a5,5,0,0,1,5,-5z"></path><g id="node_text31" fill="black"><text id="kity_text_204" text-rendering="inherit" font-size="12" dy=".8em" y="1542.7000000476837" x="470.5">添加下拉菜单</text></g></g><g id="minder_node34"><g id="node_expander39" style="cursor: pointer;"><path id="kity_path_422" fill="white" stroke="gray" d="M386.5,1850.5A6,6,0,1,1,374.5,1850.5A6,6,0,1,1,386.5,1850.5"></path><path id="kity_path_423" fill="none" stroke="gray" d="M376,1850.5L385,1850.5"></path></g><path id="node_outline40" fill="none" stroke="none" d="M391.5,1839.5h46a5,5,0,0,1,5,5v12a5,5,0,0,1,-5,5h-46a5,5,0,0,1,-5,-5v-12a5,5,0,0,1,5,-5z"></path><g id="node_text40" fill="black"><text id="kity_text_222" text-rendering="inherit" font-size="12" dy=".8em" y="1842.7000000476837" x="396.5">导航条</text></g></g><g id="minder_node35"><g id="node_expander32" style="cursor: pointer;" display="none"><path id="kity_path_401" fill="white" stroke="gray" d="M478.5,1603.5A6,6,0,1,1,466.5,1603.5A6,6,0,1,1,478.5,1603.5"></path><path id="kity_path_402" fill="none" stroke="gray"></path></g><path id="node_outline33" fill="none" stroke="none" d="M483.5,1592.5h34a5,5,0,0,1,5,5v12a5,5,0,0,1,-5,5h-34a5,5,0,0,1,-5,-5v-12a5,5,0,0,1,5,-5z"></path><g id="node_text33" fill="black"><text id="kity_text_208" text-rendering="inherit" font-size="12" dy=".8em" y="1595.7000000476837" x="488.5">表单</text></g></g><g id="minder_node36"><g id="node_expander33" style="cursor: pointer;" display="none"><path id="kity_path_404" fill="white" stroke="gray" d="M477.5,1663.5A6,6,0,1,1,465.5,1663.5A6,6,0,1,1,477.5,1663.5"></path><path id="kity_path_405" fill="none" stroke="gray"></path></g><path id="node_outline34" fill="none" stroke="none" d="M482.5,1652.5h34a5,5,0,0,1,5,5v12a5,5,0,0,1,-5,5h-34a5,5,0,0,1,-5,-5v-12a5,5,0,0,1,5,-5z"></path><g id="node_text34" fill="black"><text id="kity_text_210" text-rendering="inherit" font-size="12" dy=".8em" y="1655.7000000476837" x="487.5">按钮</text></g></g><g id="minder_node37"><g id="node_expander34" style="cursor: pointer;" display="none"><path id="kity_path_407" fill="white" stroke="gray" d="M488.5,1715.5A6,6,0,1,1,476.5,1715.5A6,6,0,1,1,488.5,1715.5"></path><path id="kity_path_408" fill="none" stroke="gray"></path></g><path id="node_outline35" fill="none" stroke="none" d="M493.5,1704.5h34a5,5,0,0,1,5,5v12a5,5,0,0,1,-5,5h-34a5,5,0,0,1,-5,-5v-12a5,5,0,0,1,5,-5z"></path><g id="node_text35" fill="black"><text id="kity_text_212" text-rendering="inherit" font-size="12" dy=".8em" y="1707.7000000476837" x="498.5">文本</text></g></g><g id="minder_node38"><g id="node_expander35" style="cursor: pointer;" display="none"><path id="kity_path_410" fill="white" stroke="gray" d="M478.5,1769.5A6,6,0,1,1,466.5,1769.5A6,6,0,1,1,478.5,1769.5"></path><path id="kity_path_411" fill="none" stroke="gray"></path></g><path id="node_outline36" fill="none" stroke="none" d="M483.5,1758.5h94a5,5,0,0,1,5,5v12a5,5,0,0,1,-5,5h-94a5,5,0,0,1,-5,-5v-12a5,5,0,0,1,5,-5z"></path><g id="node_text36" fill="black"><text id="kity_text_214" text-rendering="inherit" font-size="12" dy=".8em" y="1761.7000000476837" x="488.5">没有跳转的链接</text></g></g><g id="minder_node39"><g id="node_expander36" style="cursor: pointer;" display="none"><path id="kity_path_413" fill="white" stroke="gray" d="M484.5,1824.5A6,6,0,1,1,472.5,1824.5A6,6,0,1,1,484.5,1824.5"></path><path id="kity_path_414" fill="none" stroke="gray"></path></g><path id="node_outline37" fill="none" stroke="none" d="M489.5,1813.5h58a5,5,0,0,1,5,5v12a5,5,0,0,1,-5,5h-58a5,5,0,0,1,-5,-5v-12a5,5,0,0,1,5,-5z"></path><g id="node_text37" fill="black"><text id="kity_text_216" text-rendering="inherit" font-size="12" dy=".8em" y="1816.7000000476837" x="494.5">组件排列</text></g></g><g id="minder_node40"><g id="node_expander37" style="cursor: pointer;" display="none"><path id="kity_path_416" fill="white" stroke="gray" d="M472.5,1869.5A6,6,0,1,1,460.5,1869.5A6,6,0,1,1,472.5,1869.5"></path><path id="kity_path_417" fill="none" stroke="gray"></path></g><path id="node_outline38" fill="none" stroke="none" d="M477.5,1858.5h106a5,5,0,0,1,5,5v12a5,5,0,0,1,-5,5h-106a5,5,0,0,1,-5,-5v-12a5,5,0,0,1,5,-5z"></path><g id="node_text38" fill="black"><text id="kity_text_218" text-rendering="inherit" font-size="12" dy=".8em" y="1861.7000000476837" x="482.5">固定在顶部、底部</text></g></g><g id="minder_node41"><g id="node_expander38" style="cursor: pointer;" display="none"><path id="kity_path_419" fill="white" stroke="gray" d="M488.5,1932.5A6,6,0,1,1,476.5,1932.5A6,6,0,1,1,488.5,1932.5"></path><path id="kity_path_420" fill="none" stroke="gray"></path></g><path id="node_outline39" fill="none" stroke="none" d="M493.5,1921.5h70a5,5,0,0,1,5,5v12a5,5,0,0,1,-5,5h-70a5,5,0,0,1,-5,-5v-12a5,5,0,0,1,5,-5z"></path><g id="node_text39" fill="black"><text id="kity_text_220" text-rendering="inherit" font-size="12" dy=".8em" y="1924.7000000476837" x="498.5">反色导航条</text></g></g><g id="minder_node42"><g id="node_expander40" style="cursor: pointer;" display="none"><path id="kity_path_425" fill="white" stroke="gray" d="M392.5,1994.5A6,6,0,1,1,380.5,1994.5A6,6,0,1,1,392.5,1994.5"></path><path id="kity_path_426" fill="none" stroke="gray"></path></g><path id="node_outline41" fill="none" stroke="none" d="M397.5,1983.5h58a5,5,0,0,1,5,5v12a5,5,0,0,1,-5,5h-58a5,5,0,0,1,-5,-5v-12a5,5,0,0,1,5,-5z"></path><g id="node_text41" fill="black"><text id="kity_text_224" text-rendering="inherit" font-size="12" dy=".8em" y="1986.7000000476837" x="402.5">路径导航</text></g></g><g id="minder_node43"><g id="node_expander45" style="cursor: pointer;"><path id="kity_path_440" fill="white" stroke="gray" d="M389.5,2184.5A6,6,0,1,1,377.5,2184.5A6,6,0,1,1,389.5,2184.5"></path><path id="kity_path_441" fill="none" stroke="gray" d="M379,2184.5L388,2184.5"></path></g><path id="node_outline46" fill="none" stroke="none" d="M394.5,2173.5h34a5,5,0,0,1,5,5v12a5,5,0,0,1,-5,5h-34a5,5,0,0,1,-5,-5v-12a5,5,0,0,1,5,-5z"></path><g id="node_text46" fill="black"><text id="kity_text_234" text-rendering="inherit" font-size="12" dy=".8em" y="2176.7000000476837" x="399.5">分页</text></g></g><g id="minder_node44"><g id="node_expander41" style="cursor: pointer;" display="none"><path id="kity_path_428" fill="white" stroke="gray" d="M507.5,2050.5A6,6,0,1,1,495.5,2050.5A6,6,0,1,1,507.5,2050.5"></path><path id="kity_path_429" fill="none" stroke="gray"></path></g><path id="node_outline42" fill="none" stroke="none" d="M512.5,2039.5h142a5,5,0,0,1,5,5v12a5,5,0,0,1,-5,5h-142a5,5,0,0,1,-5,-5v-12a5,5,0,0,1,5,-5z"></path><g id="node_text42" fill="black"><text id="kity_text_226" text-rendering="inherit" font-size="12" dy=".8em" y="2042.7000000476837" x="517.5">分页：很漂亮的分页效果</text></g></g><g id="minder_node45"><g id="node_expander42" style="cursor: pointer;" display="none"><path id="kity_path_431" fill="white" stroke="gray" d="M535.5,2108.5A6,6,0,1,1,523.5,2108.5A6,6,0,1,1,535.5,2108.5"></path><path id="kity_path_432" fill="none" stroke="gray"></path></g><path id="node_outline43" fill="none" stroke="none" d="M540.5,2097.5h70a5,5,0,0,1,5,5v12a5,5,0,0,1,-5,5h-70a5,5,0,0,1,-5,-5v-12a5,5,0,0,1,5,-5z"></path><g id="node_text43" fill="black"><text id="kity_text_228" text-rendering="inherit" font-size="12" dy=".8em" y="2100.7000000476837" x="545.5">禁用和激活</text></g></g><g id="minder_node46"><g id="node_expander43" style="cursor: pointer;" display="none"><path id="kity_path_434" fill="white" stroke="gray" d="M540.5,2173.5A6,6,0,1,1,528.5,2173.5A6,6,0,1,1,540.5,2173.5"></path><path id="kity_path_435" fill="none" stroke="gray"></path></g><path id="node_outline44" fill="none" stroke="none" d="M545.5,2162.5h34a5,5,0,0,1,5,5v12a5,5,0,0,1,-5,5h-34a5,5,0,0,1,-5,-5v-12a5,5,0,0,1,5,-5z"></path><g id="node_text44" fill="black"><text id="kity_text_230" text-rendering="inherit" font-size="12" dy=".8em" y="2165.7000000476837" x="550.5">尺寸</text></g></g><g id="minder_node47"><g id="node_expander44" style="cursor: pointer;" display="none"><path id="kity_path_437" fill="white" stroke="gray" d="M527.5,2226.5A6,6,0,1,1,515.5,2226.5A6,6,0,1,1,527.5,2226.5"></path><path id="kity_path_438" fill="none" stroke="gray"></path></g><path id="node_outline45" fill="none" stroke="none" d="M532.5,2215.5h58a5,5,0,0,1,5,5v12a5,5,0,0,1,-5,5h-58a5,5,0,0,1,-5,-5v-12a5,5,0,0,1,5,-5z"></path><g id="node_text45" fill="black"><text id="kity_text_232" text-rendering="inherit" font-size="12" dy=".8em" y="2218.7000000476837" x="537.5">对齐链接</text></g></g><g id="minder_node48"><g id="node_expander46" style="cursor: pointer;" display="none"><path id="kity_path_443" fill="white" stroke="gray" d="M374.5,2305.5A6,6,0,1,1,362.5,2305.5A6,6,0,1,1,374.5,2305.5"></path><path id="kity_path_444" fill="none" stroke="gray"></path></g><path id="node_outline47" fill="none" stroke="none" d="M379.5,2294.5h238a5,5,0,0,1,5,5v12a5,5,0,0,1,-5,5h-238a5,5,0,0,1,-5,-5v-12a5,5,0,0,1,5,-5z"></path><g id="node_text47" fill="black"><text id="kity_text_236" text-rendering="inherit" font-size="12" dy=".8em" y="2297.7000000476837" x="384.5">标签、徽章、巨幕、页头、缩略图、警告框</text></g></g><g id="minder_node49"><g id="node_expander52" style="cursor: pointer;"><path id="kity_path_461" fill="white" stroke="gray" d="M376.5,2547.5A6,6,0,1,1,364.5,2547.5A6,6,0,1,1,376.5,2547.5"></path><path id="kity_path_462" fill="none" stroke="gray" d="M366,2547.5L375,2547.5"></path></g><path id="node_outline53" fill="none" stroke="none" d="M381.5,2536.5h46a5,5,0,0,1,5,5v12a5,5,0,0,1,-5,5h-46a5,5,0,0,1,-5,-5v-12a5,5,0,0,1,5,-5z"></path><g id="node_text53" fill="black"><text id="kity_text_248" text-rendering="inherit" font-size="12" dy=".8em" y="2539.7000000476837" x="386.5">进度条</text></g></g><g id="minder_node50"><g id="node_expander47" style="cursor: pointer;" display="none"><path id="kity_path_446" fill="white" stroke="gray" d="M498.5,2362.5A6,6,0,1,1,486.5,2362.5A6,6,0,1,1,498.5,2362.5"></path><path id="kity_path_447" fill="none" stroke="gray"></path></g><path id="node_outline48" fill="none" stroke="none" d="M503.5,2351.5h58a5,5,0,0,1,5,5v12a5,5,0,0,1,-5,5h-58a5,5,0,0,1,-5,-5v-12a5,5,0,0,1,5,-5z"></path><g id="node_text48" fill="black"><text id="kity_text_238" text-rendering="inherit" font-size="12" dy=".8em" y="2354.7000000476837" x="508.5">基本样式</text></g></g><g id="minder_node51"><g id="node_expander48" style="cursor: pointer;" display="none"><path id="kity_path_449" fill="white" stroke="gray" d="M484.5,2425.5A6,6,0,1,1,472.5,2425.5A6,6,0,1,1,484.5,2425.5"></path><path id="kity_path_450" fill="none" stroke="gray"></path></g><path id="node_outline49" fill="none" stroke="none" d="M489.5,2414.5h94a5,5,0,0,1,5,5v12a5,5,0,0,1,-5,5h-94a5,5,0,0,1,-5,-5v-12a5,5,0,0,1,5,-5z"></path><g id="node_text49" fill="black"><text id="kity_text_240" text-rendering="inherit" font-size="12" dy=".8em" y="2417.7000000476837" x="494.5">带提示的进度条</text></g></g><g id="minder_node52"><g id="node_expander49" style="cursor: pointer;" display="none"><path id="kity_path_452" fill="white" stroke="gray" d="M499.5,2481.5A6,6,0,1,1,487.5,2481.5A6,6,0,1,1,499.5,2481.5"></path><path id="kity_path_453" fill="none" stroke="gray"></path></g><path id="node_outline50" fill="none" stroke="none" d="M504.5,2470.5h58a5,5,0,0,1,5,5v12a5,5,0,0,1,-5,5h-58a5,5,0,0,1,-5,-5v-12a5,5,0,0,1,5,-5z"></path><g id="node_text50" fill="black"><text id="kity_text_242" text-rendering="inherit" font-size="12" dy=".8em" y="2473.7000000476837" x="509.5">条纹效果</text></g></g><g id="minder_node53"><g id="node_expander50" style="cursor: pointer;" display="none"><path id="kity_path_455" fill="white" stroke="gray" d="M503.5,2545.5A6,6,0,1,1,491.5,2545.5A6,6,0,1,1,503.5,2545.5"></path><path id="kity_path_456" fill="none" stroke="gray"></path></g><path id="node_outline51" fill="none" stroke="none" d="M508.5,2534.5h58a5,5,0,0,1,5,5v12a5,5,0,0,1,-5,5h-58a5,5,0,0,1,-5,-5v-12a5,5,0,0,1,5,-5z"></path><g id="node_text51" fill="black"><text id="kity_text_244" text-rendering="inherit" font-size="12" dy=".8em" y="2537.7000000476837" x="513.5">动画效果</text></g></g><g id="minder_node54"><g id="node_expander51" style="cursor: pointer;" display="none"><path id="kity_path_458" fill="white" stroke="gray" d="M504.5,2603.5A6,6,0,1,1,492.5,2603.5A6,6,0,1,1,504.5,2603.5"></path><path id="kity_path_459" fill="none" stroke="gray"></path></g><path id="node_outline52" fill="none" stroke="none" d="M509.5,2592.5h58a5,5,0,0,1,5,5v12a5,5,0,0,1,-5,5h-58a5,5,0,0,1,-5,-5v-12a5,5,0,0,1,5,-5z"></path><g id="node_text52" fill="black"><text id="kity_text_246" text-rendering="inherit" font-size="12" dy=".8em" y="2595.7000000476837" x="514.5">堆叠效果</text></g></g><g id="minder_node55"><g id="node_expander53" style="cursor: pointer;" display="none"><path id="kity_path_464" fill="white" stroke="gray" d="M367.5,2702.5A6,6,0,1,1,355.5,2702.5A6,6,0,1,1,367.5,2702.5"></path><path id="kity_path_465" fill="none" stroke="gray"></path></g><path id="node_outline54" fill="none" stroke="none" d="M372.5,2691.5h142a5,5,0,0,1,5,5v12a5,5,0,0,1,-5,5h-142a5,5,0,0,1,-5,-5v-12a5,5,0,0,1,5,-5z"></path><g id="node_text54" fill="black"><text id="kity_text_250" text-rendering="inherit" font-size="12" dy=".8em" y="2694.7000000476837" x="377.5">媒体对象、列表组、面板</text></g></g></g></g></svg>